<svg width="48" height="48" viewBox="0 0 48 48" fill="none" xmlns="http://www.w3.org/2000/svg">
<g clip-path="url(#clip0_2140_34)">
<path d="M5 23.24C5 14.6406 5 10.3428 7.6714 7.6714C10.3428 5 14.6406 5 23.24 5H24.76C33.3594 5 37.6572 5 40.3286 7.6714C43 10.3428 43 14.6406 43 23.24V24.76C43 33.3594 43 37.6572 40.3286 40.3286C37.6572 43 33.3594 43 24.76 43H23.24C14.6406 43 10.3428 43 7.6714 40.3286C5 37.6572 5 33.3594 5 24.76V23.24Z" fill="#0077FF"/>
<path d="M27.1657 5C20.1471 5.0228 16.4117 5.2584 14.0025 7.6676C11.3311 10.339 11.3311 14.6368 11.3311 23.2362V24.7562C11.3311 33.3556 11.3311 37.6534 14.0025 40.3248C16.4117 42.734 20.1471 42.9696 27.1657 42.9924C34.1843 42.9696 37.9197 42.734 40.3289 40.3248C43.0002 37.6534 43.0002 33.3556 43.0002 24.7562V23.2362C43.0002 14.6368 43.0002 10.339 40.3289 7.6676C37.9197 5.2622 34.1843 5.0266 27.1657 5Z" fill="#FF2B42"/>
<path d="M31.8126 20.6217C33.7354 21.7313 34.693 22.2861 35.016 23.0081C35.2972 23.6389 35.2972 24.3609 35.016 24.9917C34.693 25.7175 33.7316 26.2685 31.8126 27.3781L26.5496 30.4181C24.6268 31.5277 23.6692 32.0825 22.8788 31.9989C22.191 31.9267 21.5678 31.5657 21.1612 31.0071C20.6938 30.3649 20.6938 29.2553 20.6938 27.0399V20.9599C20.6938 18.7407 20.6938 17.6311 21.1612 16.9927C21.5678 16.4341 22.191 16.0731 22.8788 16.0009C23.6654 15.9173 24.6268 16.4721 26.5496 17.5817L31.8126 20.6217Z" fill="white"/>
</g>
<defs>
<clipPath id="clip0_2140_34">
<rect width="38" height="38" fill="white" transform="translate(5 5)"/>
</clipPath>
</defs>
</svg>
